<?xml version="1.0" standalone="no"?>
<!DOCTYPE svg PUBLIC "-//W3C//DTD SVG 20010904//EN"
 "http://www.w3.org/TR/2001/REC-SVG-20010904/DTD/svg10.dtd">
<svg version="1.0" xmlns="http://www.w3.org/2000/svg"
 width="560.000000pt" height="560.000000pt" viewBox="0 0 560.000000 560.000000"
 preserveAspectRatio="xMidYMid meet">
<metadata>
Created by potrace 1.11, written by Peter Selinger 2001-2013
</metadata>
<g transform="translate(0.000000,560.000000) scale(0.100000,-0.100000)"
fill="#000000" stroke="none">
<path d="M273 5006 l-28 -24 -3 -169 c-1 -92 -4 -175 -5 -185 -2 -13 -14 -9
-66 23 -79 48 -122 51 -148 12 -17 -25 -18 -86 -21 -940 l-4 -912 27 -27 c22
-22 31 -25 63 -19 20 4 44 13 53 21 8 8 18 14 22 14 3 0 32 15 64 34 32 18 78
45 103 58 134 75 292 164 343 194 32 19 60 34 62 34 2 0 26 13 52 28 44 26
365 208 538 305 39 22 93 52 120 67 28 16 86 48 130 73 121 67 139 114 67 173
l-26 21 39 20 c22 11 56 29 75 40 19 11 64 36 100 56 82 45 106 68 115 107 11
51 -13 77 -142 151 -23 13 -129 76 -235 140 -106 64 -237 143 -291 175 -53 33
-112 68 -130 79 -19 11 -75 45 -126 75 -51 30 -104 63 -119 72 -15 10 -40 25
-57 34 -16 9 -104 62 -195 117 -332 201 -325 198 -377 153z m218 -92 c79 -48
160 -96 180 -108 20 -11 141 -84 268 -161 127 -77 256 -153 285 -170 29 -16
60 -35 67 -41 8 -6 57 -36 109 -66 149 -87 453 -271 484 -294 57 -41 39 -87
-54 -137 -25 -13 -61 -33 -80 -44 -19 -11 -64 -36 -100 -56 l-66 -36 -34 21
c-19 12 -47 29 -61 38 -57 33 -311 186 -443 266 -77 46 -142 84 -144 84 -2 0
-27 15 -55 34 -42 27 -226 138 -299 181 -10 5 -76 45 -148 88 l-131 78 3 188
c3 200 8 221 52 221 12 0 87 -39 167 -86z"/>
<path d="M2600 3808 c-75 -21 -123 -82 -119 -155 4 -74 37 -113 139 -162 82
-40 103 -63 89 -98 -5 -15 -17 -32 -27 -39 -27 -21 -92 -16 -149 10 -28 13
-54 22 -57 18 -13 -13 -5 -80 12 -94 42 -37 147 -49 224 -26 42 12 99 64 105
95 26 126 -1 173 -132 232 -34 16 -69 38 -77 50 -42 60 27 107 112 76 62 -23
72 -23 76 -1 7 44 -8 75 -40 85 -47 16 -117 20 -156 9z"/>
<path d="M2988 3803 c-65 -28 -98 -76 -100 -148 -1 -68 31 -107 127 -157 44
-23 85 -49 92 -57 34 -44 -9 -101 -76 -101 -20 0 -60 11 -89 25 -59 27 -66 23
-60 -36 4 -46 41 -70 119 -76 148 -12 243 63 233 183 -6 73 -41 109 -160 163
-61 28 -83 59 -66 95 16 36 65 42 132 17 29 -11 56 -18 60 -16 5 3 6 51 1 77
0 4 -15 15 -33 24 -40 21 -137 25 -180 7z"/>
<path d="M3461 3800 c-120 -40 -175 -149 -160 -319 9 -103 33 -148 107 -200
26 -18 51 -24 115 -28 72 -4 88 -2 127 19 38 19 45 28 48 56 6 60 -1 64 -58
38 -129 -60 -222 10 -221 164 0 81 17 126 60 162 41 35 120 35 170 -1 38 -27
51 -19 51 34 0 38 -7 48 -48 69 -48 25 -129 27 -191 6z"/>
<path d="M3844 3788 c-10 -16 -12 -1176 -2 -1191 4 -6 11 -8 15 -3 10 9 11
1196 1 1202 -4 2 -10 -1 -14 -8z"/>
<path d="M1989 3737 c-35 -18 -152 -84 -259 -146 -107 -62 -211 -122 -230
-133 -19 -11 -73 -43 -120 -71 -47 -27 -110 -63 -140 -80 -30 -16 -62 -35 -70
-41 -8 -7 -28 -18 -45 -26 -16 -8 -81 -45 -143 -82 -62 -38 -115 -68 -117 -68
-3 0 -29 -16 -59 -35 -30 -19 -58 -35 -61 -35 -4 0 -19 -8 -33 -19 -15 -10
-47 -29 -72 -43 -126 -71 -171 -101 -184 -127 -17 -32 -11 -67 16 -97 l19 -22
-148 -88 c-81 -49 -156 -96 -166 -105 -31 -28 -31 -65 0 -97 23 -23 246 -154
563 -330 25 -14 90 -51 145 -82 55 -32 117 -67 138 -79 21 -12 71 -40 110 -62
40 -23 88 -50 107 -61 19 -11 141 -80 270 -153 129 -74 247 -137 261 -140 20
-5 34 0 55 18 l29 25 -3 188 c-1 103 -5 191 -8 196 -8 13 3 10 43 -14 21 -12
57 -32 80 -45 83 -48 146 -29 161 47 4 19 7 164 7 323 0 259 2 288 17 293 20
6 44 43 42 64 0 8 -2 23 -2 32 -3 28 -43 58 -79 58 -87 0 -111 -123 -30 -154
l28 -11 -3 -307 c-3 -273 -5 -309 -20 -324 -34 -34 -67 -24 -198 57 l-44 28
-2 108 c-14 932 -23 1263 -35 1299 -12 40 -43 54 -89 42 -19 -6 -42 -16 -50
-22 -8 -7 -67 -43 -130 -80 -158 -92 -150 -88 -198 -118 -24 -16 -45 -28 -48
-28 -2 0 -33 -17 -67 -39 -34 -21 -207 -124 -384 -230 -313 -186 -323 -191
-342 -174 -51 49 -32 81 80 145 83 46 164 93 194 111 11 7 43 27 72 45 30 17
55 32 58 32 2 0 28 14 57 31 29 18 69 41 88 52 19 10 188 108 375 217 187 109
356 207 375 217 19 11 78 45 130 76 119 69 131 73 161 48 l23 -19 -1 -236 c-2
-201 0 -236 12 -236 10 0 15 10 16 28 8 428 6 458 -33 489 -31 25 -56 23 -119
-10z"/>
<path d="M4001 3241 c-18 -33 -13 -50 24 -73 51 -33 44 -69 -9 -48 -22 8 -26
7 -26 -9 0 -13 9 -20 29 -23 41 -6 69 7 77 37 7 29 -8 53 -43 66 -13 5 -23 15
-23 24 0 15 10 19 44 15 11 -1 17 3 14 12 -3 7 -21 14 -41 16 -27 2 -38 -1
-46 -17z"/>
<path d="M4110 3245 c0 -9 9 -15 23 -15 22 0 23 -4 23 -67 -1 -57 2 -68 17
-71 15 -3 17 5 17 67 0 69 1 71 25 71 16 0 25 6 25 15 0 12 -14 15 -65 15 -51
0 -65 -3 -65 -15z"/>
<path d="M4259 3250 c0 -5 0 -32 0 -60 0 -94 1 -100 16 -100 12 0 15 16 15 85
0 69 -3 85 -15 85 -8 0 -15 -4 -16 -10z"/>
<path d="M4337 3254 c-4 -4 -7 -43 -7 -86 0 -70 2 -78 19 -78 16 0 19 6 16 40
-2 22 -2 40 1 40 2 0 15 -18 29 -40 16 -25 33 -40 45 -40 19 0 28 15 13 22 -5
2 -18 17 -30 34 l-22 31 25 36 c28 42 29 47 9 47 -8 0 -26 -17 -40 -37 -14
-21 -25 -31 -26 -23 -1 8 -2 24 -3 34 -1 20 -18 31 -29 20z"/>
<path d="M4480 3175 c0 -75 2 -85 18 -85 15 0 18 9 16 68 -2 97 -3 102 -19
102 -12 0 -15 -16 -15 -85z"/>
<path d="M2505 3140 c-8 -13 173 -562 188 -572 20 -13 135 -9 144 5 8 13 109
310 123 362 5 17 21 66 37 110 16 44 28 86 25 93 -2 7 -23 12 -52 12 -58 0
-61 -4 -95 -124 -24 -80 -91 -298 -100 -325 -8 -20 -15 -9 -30 45 -29 106
-118 380 -127 392 -12 14 -104 16 -113 2z"/>
<path d="M3105 3142 c-7 -4 -10 -104 -9 -287 1 -154 2 -283 3 -287 0 -5 26 -8
56 -8 45 0 55 3 56 18 6 93 3 550 -4 560 -10 13 -85 16 -102 4z"/>
<path d="M3354 3143 c-13 -9 -17 -552 -4 -572 4 -8 26 -11 56 -9 l49 3 0 290
0 290 -45 3 c-25 1 -50 -1 -56 -5z"/>
<path d="M3593 3138 c-12 -20 -10 -562 2 -570 18 -13 105 -9 106 5 7 66 3 555
-4 565 -5 6 -29 12 -53 12 -23 0 -46 -6 -51 -12z"/>
<path d="M4007 2982 c-29 -32 -14 -72 31 -86 13 -5 22 -15 22 -28 0 -18 -4
-20 -35 -15 -26 4 -35 2 -35 -8 0 -22 49 -30 79 -14 41 23 39 61 -3 90 -45 30
-48 53 -6 47 32 -5 43 15 14 26 -28 11 -50 6 -67 -12z"/>
<path d="M4114 2991 c-11 -11 -2 -21 20 -21 22 0 23 -3 21 -65 -1 -42 3 -69
11 -76 20 -16 27 8 25 78 -2 62 -2 63 24 63 17 0 25 5 23 12 -4 12 -113 20
-124 9z"/>
<path d="M4265 2990 c-4 -6 -6 -39 -6 -73 0 -52 4 -65 23 -80 27 -23 86 -17
105 10 19 25 17 139 -2 146 -21 9 -25 -4 -23 -64 2 -61 -5 -79 -31 -79 -30 0
-41 22 -41 81 0 55 -11 81 -25 59z"/>
<path d="M4443 2987 c-11 -18 -11 -151 1 -159 12 -8 84 0 108 13 10 5 18 15
19 22 0 7 2 21 4 31 6 32 -7 76 -24 86 -28 15 -100 19 -108 7z m81 -33 c17
-16 21 -61 8 -81 -4 -6 -20 -15 -35 -18 l-27 -7 0 61 c0 54 2 61 19 61 11 0
27 -7 35 -16z"/>
<path d="M4614 2991 c-7 -8 -4 -161 4 -162 55 -10 92 -5 92 12 0 5 -15 9 -33
9 -28 0 -33 4 -35 25 -1 22 2 25 28 25 20 0 30 5 30 15 0 10 -10 15 -31 15
-24 0 -30 3 -25 16 3 9 6 18 6 20 0 2 14 4 30 4 18 0 30 5 30 13 0 9 -14 13
-46 13 -25 -1 -48 -3 -50 -5z"/>
<path d="M4747 2986 c-8 -19 -3 -156 6 -156 4 0 11 0 15 0 5 0 7 26 5 58 -2
53 -1 56 13 37 9 -11 22 -34 29 -51 15 -34 33 -51 55 -50 11 1 14 18 15 76 1
73 -8 105 -26 94 -5 -3 -9 -29 -9 -57 l-1 -52 -24 47 c-14 26 -30 50 -37 55
-21 12 -36 12 -41 -1z"/>
<path d="M4904 2991 c-11 -11 -2 -21 21 -21 24 0 25 -2 25 -69 0 -39 4 -72 8
-75 19 -11 29 13 27 64 -2 68 2 80 26 80 10 0 19 6 19 13 0 9 -18 13 -61 13
-33 0 -62 -2 -65 -5z"/>
<path d="M4031 2726 c-70 -39 -44 -166 33 -166 30 0 56 15 56 32 0 4 -15 5
-34 2 -40 -6 -56 13 -56 64 0 37 22 56 54 48 25 -6 44 8 26 19 -21 13 -56 14
-79 1z"/>
<path d="M4179 2728 c-53 -18 -64 -120 -16 -153 30 -21 79 -19 105 5 40 38 25
148 -21 151 -7 0 -19 2 -27 3 -8 2 -27 -1 -41 -6z m59 -27 c23 -14 23 -80 1
-102 -18 -18 -23 -19 -42 -6 -25 16 -34 66 -17 97 11 21 35 26 58 11z"/>
<path d="M4847 2732 c-33 -4 -31 -28 1 -26 21 1 22 -3 22 -73 0 -66 2 -74 18
-71 13 3 17 15 19 58 1 30 2 63 2 72 1 11 8 16 20 13 11 -2 22 2 25 10 5 14
-52 23 -107 17z"/>
<path d="M5040 2732 c-20 -7 -10 -32 13 -29 21 2 22 -3 27 -68 4 -53 9 -70 20
-70 12 0 15 15 15 70 0 62 3 70 19 70 11 0 21 5 23 12 4 10 -93 23 -117 15z"/>
<path d="M5288 2728 c-25 -9 -40 -39 -43 -88 -1 -26 24 -68 46 -75 38 -12 88
4 103 33 43 85 -18 160 -106 130z m63 -28 c14 -8 19 -21 19 -48 0 -44 -14 -62
-47 -62 -53 0 -52 119 0 120 5 0 17 -5 28 -10z"/>
<path d="M4325 2648 c0 -66 4 -83 15 -83 12 0 15 14 15 62 0 67 8 72 25 15 17
-55 32 -82 46 -82 11 0 51 88 56 123 1 7 4 -17 7 -53 5 -49 10 -65 21 -65 12
0 15 16 16 83 l1 83 -30 -3 c-26 -3 -32 -10 -50 -57 l-21 -55 -14 35 c-8 19
-18 44 -23 57 -6 16 -17 22 -37 22 l-28 0 1 -82z"/>
<path d="M4568 2723 c-2 -5 -4 -42 -4 -83 1 -63 4 -75 19 -78 13 -3 17 3 17
27 0 17 3 31 8 32 26 2 45 9 57 19 18 15 20 61 3 78 -13 13 -95 17 -100 5z
m67 -29 c12 -12 13 -19 4 -30 -18 -22 -39 -17 -39 9 0 20 7 37 16 37 1 0 10
-7 19 -16z"/>
<path d="M4709 2713 c-1 -20 -1 -122 0 -139 1 -6 23 -12 51 -13 39 -1 50 2 50
14 0 10 -10 15 -33 15 -28 0 -33 4 -35 25 -2 22 2 25 29 25 31 0 38 24 8 26
-8 1 -20 2 -26 3 -7 0 -13 8 -13 16 0 14 24 20 58 16 6 -1 12 5 12 14 0 11
-12 15 -50 15 -41 0 -50 -3 -51 -17z"/>
<path d="M4978 2723 c-3 -7 -3 -105 1 -145 0 -10 8 -18 16 -18 12 0 15 16 15
85 0 67 -3 85 -14 85 -8 0 -16 -3 -18 -7z"/>
<path d="M5185 2658 c4 -100 3 -98 20 -98 12 0 15 16 15 85 0 76 -2 85 -19 85
-16 0 -18 -8 -16 -72z"/>
<path d="M5438 2673 c-4 -79 1 -113 17 -113 10 0 15 17 17 62 l3 62 31 -59
c21 -40 37 -59 52 -62 21 -3 22 0 22 82 0 69 -3 85 -15 85 -16 0 -19 -12 -16
-70 l1 -35 -32 53 c-23 37 -39 52 -55 52 -19 0 -22 -6 -25 -57z"/>
<path d="M924 1868 c-4 -7 -9 -230 -12 -496 -4 -457 -3 -484 14 -478 9 4 24 0
33 -7 9 -8 83 -53 164 -101 124 -73 148 -91 144 -107 -3 -11 -1 -35 4 -54 12
-43 63 -64 109 -45 57 24 60 114 5 144 -11 6 -22 12 -24 14 -4 2 -5 66 -1 272
1 53 7 103 14 111 6 9 43 33 81 53 39 21 75 42 80 46 11 8 34 21 157 89 117
64 115 78 -21 157 -156 92 -426 251 -569 335 -131 78 -164 90 -178 67z m294
-169 c141 -84 277 -163 302 -177 25 -14 68 -39 95 -56 28 -17 61 -37 75 -44
35 -18 64 -41 59 -46 -4 -4 -196 -112 -304 -172 -33 -18 -71 -43 -85 -55 -14
-12 -59 -40 -100 -62 -41 -22 -92 -51 -112 -63 -21 -13 -40 -24 -42 -24 -2 0
-39 -20 -80 -45 -42 -25 -79 -45 -82 -45 -3 0 -4 211 -2 470 1 259 7 470 11
470 4 0 124 -68 265 -151z"/>
</g>
</svg>
